<?xml version="1.0" encoding="iso-8859-1"?>
<!-- Generator: Adobe Illustrator 22.1.0, SVG Export Plug-In . SVG Version: 6.00 Build 0)  -->
<svg version="1.1" id="&#x421;&#x43B;&#x43E;&#x439;_1"
	 xmlns="http://www.w3.org/2000/svg" xmlns:xlink="http://www.w3.org/1999/xlink" x="0px" y="0px" width="143px" height="47px"
	 viewBox="0 0 143 47" style="enable-background:new 0 0 143 47;" xml:space="preserve">
<g>
	<path style="fill:#FBB03B;" d="M29.941,10.104v17.091c0,1.951-0.437,3.662-1.31,5.131c-0.874,1.47-2.135,2.596-3.785,3.379
		c-1.65,0.782-3.602,1.174-5.854,1.174c-3.396,0-6.034-0.87-7.913-2.61s-2.818-4.122-2.818-7.146V10.104h5.583v16.169
		c0,2.036,0.409,3.529,1.229,4.48c0.819,0.952,2.174,1.428,4.065,1.428c1.831,0,3.159-0.479,3.983-1.437
		c0.825-0.957,1.238-2.46,1.238-4.507V10.104H29.941z"/>
	<path style="fill:#FFFFFF;" d="M41.269,25.533l2.403-3.071l5.655-6.143h6.215l-8.021,8.763l8.51,11.436h-6.36l-5.817-8.184
		l-2.367,1.896v6.287h-5.51V8.406h5.51v12.538l-0.289,4.589H41.269z"/>
	<path style="fill:#FFFFFF;" d="M71.747,36.518l-1.065-2.746h-0.145c-0.928,1.168-1.883,1.979-2.864,2.43
		c-0.981,0.452-2.261,0.678-3.839,0.678c-1.939,0-3.466-0.554-4.58-1.662s-1.671-2.686-1.671-4.733c0-2.144,0.75-3.725,2.249-4.742
		c1.5-1.019,3.761-1.581,6.784-1.689l3.505-0.108v-0.885c0-2.047-1.048-3.071-3.144-3.071c-1.614,0-3.511,0.488-5.69,1.463
		l-1.825-3.722c2.324-1.216,4.902-1.825,7.732-1.825c2.71,0,4.788,0.59,6.233,1.771c1.445,1.181,2.168,2.975,2.168,5.384v13.459
		H71.747z M70.121,27.159l-2.132,0.072c-1.602,0.048-2.794,0.337-3.577,0.867s-1.174,1.337-1.174,2.421
		c0,1.554,0.891,2.33,2.674,2.33c1.276,0,2.297-0.367,3.062-1.102s1.147-1.71,1.147-2.927V27.159z"/>
	<path style="fill:#FFFFFF;" d="M95.359,30.52c0,2.071-0.72,3.649-2.159,4.733s-3.592,1.626-6.458,1.626
		c-1.47,0-2.723-0.1-3.758-0.298c-1.036-0.199-2.006-0.491-2.909-0.876v-4.553c1.023,0.481,2.177,0.885,3.46,1.21
		c1.282,0.325,2.412,0.487,3.387,0.487c2,0,3-0.578,3-1.734c0-0.434-0.133-0.785-0.398-1.057c-0.265-0.271-0.723-0.578-1.373-0.921
		c-0.65-0.344-1.518-0.743-2.602-1.202c-1.553-0.65-2.694-1.252-3.423-1.807c-0.729-0.553-1.259-1.189-1.59-1.905
		c-0.332-0.717-0.497-1.599-0.497-2.647c0-1.794,0.695-3.183,2.087-4.165c1.391-0.981,3.363-1.472,5.917-1.472
		c2.433,0,4.799,0.53,7.1,1.59l-1.662,3.975c-1.012-0.434-1.957-0.789-2.836-1.066c-0.88-0.277-1.777-0.416-2.692-0.416
		c-1.626,0-2.438,0.44-2.438,1.319c0,0.494,0.262,0.921,0.785,1.283c0.524,0.361,1.672,0.897,3.441,1.608
		c1.578,0.639,2.734,1.234,3.469,1.789c0.735,0.554,1.277,1.191,1.627,1.914C95.185,28.658,95.359,29.52,95.359,30.52z"/>
	<path style="fill:#FFFFFF;" d="M113.751,30.52c0,2.071-0.72,3.649-2.159,4.733s-3.592,1.626-6.458,1.626
		c-1.47,0-2.723-0.1-3.758-0.298c-1.036-0.199-2.006-0.491-2.909-0.876v-4.553c1.023,0.481,2.177,0.885,3.46,1.21
		c1.282,0.325,2.412,0.487,3.387,0.487c2,0,3-0.578,3-1.734c0-0.434-0.133-0.785-0.398-1.057c-0.265-0.271-0.723-0.578-1.373-0.921
		c-0.65-0.344-1.518-0.743-2.602-1.202c-1.553-0.65-2.694-1.252-3.423-1.807c-0.729-0.553-1.259-1.189-1.59-1.905
		c-0.332-0.717-0.497-1.599-0.497-2.647c0-1.794,0.695-3.183,2.087-4.165c1.391-0.981,3.363-1.472,5.917-1.472
		c2.433,0,4.799,0.53,7.1,1.59l-1.662,3.975c-1.012-0.434-1.957-0.789-2.836-1.066c-0.88-0.277-1.777-0.416-2.692-0.416
		c-1.626,0-2.438,0.44-2.438,1.319c0,0.494,0.262,0.921,0.785,1.283c0.524,0.361,1.672,0.897,3.441,1.608
		c1.578,0.639,2.734,1.234,3.469,1.789c0.735,0.554,1.277,1.191,1.627,1.914C113.576,28.658,113.751,29.52,113.751,30.52z"/>
	<path style="fill:#FFFFFF;" d="M130.878,36.518l-1.065-2.746h-0.145c-0.928,1.168-1.883,1.979-2.864,2.43
		c-0.981,0.452-2.261,0.678-3.839,0.678c-1.939,0-3.466-0.554-4.58-1.662s-1.671-2.686-1.671-4.733c0-2.144,0.75-3.725,2.249-4.742
		c1.5-1.019,3.761-1.581,6.784-1.689l3.505-0.108v-0.885c0-2.047-1.048-3.071-3.144-3.071c-1.614,0-3.511,0.488-5.69,1.463
		l-1.825-3.722c2.324-1.216,4.902-1.825,7.732-1.825c2.71,0,4.788,0.59,6.233,1.771c1.445,1.181,2.168,2.975,2.168,5.384v13.459
		H130.878z M129.252,27.159l-2.132,0.072c-1.602,0.048-2.794,0.337-3.577,0.867s-1.174,1.337-1.174,2.421
		c0,1.554,0.891,2.33,2.674,2.33c1.276,0,2.297-0.367,3.062-1.102s1.147-1.71,1.147-2.927V27.159z"/>
</g>
<g>
	<path style="fill:#FFFFFF;" d="M130,47H13C5.832,47,0,41.168,0,34V13C0,5.832,5.832,0,13,0h117c7.168,0,13,5.832,13,13v21
		C143,41.168,137.168,47,130,47z M13,2C6.935,2,2,6.935,2,13v21c0,6.065,4.935,11,11,11h117c6.065,0,11-4.935,11-11V13
		c0-6.065-4.935-11-11-11H13z"/>
</g>
</svg>
